<svg width="40" height="41" viewBox="0 0 40 41" fill="none" xmlns="http://www.w3.org/2000/svg">
<g clip-path="url(#clip0_0_3)">
<path d="M33.531 23.7017C33.531 26.5756 32.388 29.3318 30.3536 31.364C28.3192 33.3962 25.5599 34.5378 22.6828 34.5378C20.2765 34.5378 18.0477 33.7497 16.2529 32.4297L31.4205 17.2788C32.742 19.0717 33.531 21.298 33.531 23.7017Z" fill="#FFC700"/>
<path d="M33.3926 31.3462L35.6608 25.8887L40.0001 30.893L33.3926 31.3462Z" fill="#FFC700"/>
<path d="M35.6606 21.5739L33.4121 16.0967L39.9999 16.5695L35.6606 21.5739Z" fill="#FFC700"/>
<path d="M24.8525 36.6656L30.316 34.3999L29.8426 41.0001L24.8525 36.6656Z" fill="#FFC700"/>
<path d="M15.0488 34.3999L20.5123 36.6656L15.5222 40.9804L15.0488 34.3999Z" fill="#FFC700"/>
<path d="M33.669 3.99951L36.4895 6.8169L5.77949 37.493L2.95898 34.6756L33.669 3.99951Z" fill="#FFC700"/>
<path fill-rule="evenodd" clip-rule="evenodd" d="M18.5603 6.95483L21.4794 8.78712L20.4735 5.49688L23.1362 3.27054L19.724 3.21144L18.4025 0L17.2585 3.25084L13.8068 3.48727L16.5484 5.57568L15.72 8.92503L18.5603 6.95483ZM12.6825 14.4613L14.9705 15.8996L14.1816 13.3186L16.2526 11.6045L13.5701 11.5454L12.5642 9.04325L11.6766 11.5848L8.99414 11.7621L11.1441 13.3974L10.4735 15.9981L12.6825 14.4613Z" fill="#FFC700"/>
<path d="M10.8481 1.04443C7.31755 3.31017 4.93097 7.30969 4.93097 11.8805C4.93097 16.4514 7.31755 20.4509 10.9073 22.7167C4.85207 22.7167 0 17.87 0 11.8805C0 9.00664 1.14292 6.25043 3.17734 4.21826C5.21176 2.18609 7.97102 1.04443 10.8481 1.04443Z" fill="#FFC700"/>
</g>
<defs>
<clipPath id="clip0_0_3">
<rect width="40" height="41" fill="white"/>
</clipPath>
</defs>
</svg>
